<svg id="Layer_1" data-name="Layer 1" xmlns="http://www.w3.org/2000/svg" viewBox="0 0 750.67 459.16"><defs><style>.cls-1{fill:#fff;}</style></defs><path class="cls-1" d="M642.48,184.24a46.73,46.73,0,0,1-12,31.76c-8.05,9.15-18.05,13.7-30.09,13.7H575.22q-30.84,0-44-19.52-17.65,19.51-39.08,19.52-33.06,0-46.59-19.52-17.31,19.51-32.71,19.52h-6.77q-31.56,0-45.09-19.52c-4,4.49-13.28,9-27.81,13.52q-19.92,6-30.82,6H294.8V192.13h7.57q23.69,0,59.77-28.18,12.38-9.4,14.66-9.39,8.25,0,9,9.39,1.51,16.55,1.88,18.42,3.42,9.76,18.42,9.76,22.55,0,45.11-28.18c5.27-6.27,8.63-9.39,10.14-9.39,5.5,0,8.52,3.12,9,9.39q1.5,17.31,1.51,18.42,3.38,9.76,18,9.76,25.53,0,47.34-28.18,7.54-9.4,9.39-9.39c5,0,8.28,3.52,9.79,10.53q.72,8.61,1.48,17.28c2.52,6.51,8.15,9.76,16.94,9.76h14.63q15.43,0,15.43-8.26c0-3.75-1.78-9-5.27-15.79L583.1,135.77h42.47L638,163.21A51.41,51.41,0,0,1,642.48,184.24Z"/><path class="cls-1" d="M155.81,192.13Q175,174.87,175,150.8q0-22.55-15.43-37.39T121.62,98.57q-22.93,0-38.16,14.45T68.25,150q0,24.06,18.42,42.1H37.58A37.56,37.56,0,0,0,0,229.7H86.67q13.53,0,34.58-10.5a87.39,87.39,0,0,0,42.1,10.5H237V192.13Zm-34.56-13.52q-22.54-14.69-22.54-27.07a12.09,12.09,0,0,1,.74-3.76q5.63-15.39,21-15.4a21.63,21.63,0,0,1,15.61,6.38,21.21,21.21,0,0,1,6.57,15.8Q142.66,168.84,121.25,178.61Z"/><path class="cls-1" d="M325.78,37.34a17.29,17.29,0,0,1-22.49,4.55,53.42,53.42,0,0,0-8.23-3.65c-1.21-.4-2.43-.77-3.65-1.08C257,28.32,224.44,60.52,234.36,95c6.83,23.7,29.06,35.88,41.41,55.88,5.59,9,8.18,19.82,8.71,30.32,0,.77,0,4.39,0,8.63,0,5,0,10.87,0,13.84v44a31.26,31.26,0,0,0-18.82-5.93,31.77,31.77,0,0,0-18.39,5.34V193.8c0-6.78.43-13.44-2-19.9a48.22,48.22,0,0,0-10.24-16.75c-6.11-6.35-13.57-11.35-19.71-17.73a82.45,82.45,0,0,1-15.64-23.28c-13.92-30.91-8-68.82,16.35-92.85,10.37-10.27,22.81-17.78,37.1-21a95.16,95.16,0,0,1,53.05,3.39A77.09,77.09,0,0,1,319,11.15a21.71,21.71,0,0,1,7.54,6.69A17,17,0,0,1,325.78,37.34Z"/><path class="cls-1" d="M333.92,134.48a22.19,22.19,0,0,0,16.35,6.57,23.1,23.1,0,0,0,22.55-22.55,22.09,22.09,0,0,0-6.76-16.16,21.65,21.65,0,0,0-15.79-6.76,22.46,22.46,0,0,0-22.92,22.92A21.76,21.76,0,0,0,333.92,134.48Z"/><path class="cls-1" d="M401.38,141.05a22.06,22.06,0,0,0,16.16-6.76,21.64,21.64,0,0,0,6.77-15.79,21.86,21.86,0,0,0-6.77-16.34,22.4,22.4,0,0,0-16.16-6.58,21.76,21.76,0,0,0-16,6.58,22.16,22.16,0,0,0-6.58,16.34,21.92,21.92,0,0,0,6.58,15.79A21.43,21.43,0,0,0,401.38,141.05Z"/><path class="cls-1" d="M123.12,80.88a21.92,21.92,0,0,0,15.79-6.58,21.43,21.43,0,0,0,6.76-16,22.47,22.47,0,0,0-22.55-22.55A21.59,21.59,0,0,0,107,42.36a22.06,22.06,0,0,0-6.39,16,22.47,22.47,0,0,0,22.55,22.55Z"/><path class="cls-1" d="M183,264.44A39.12,39.12,0,0,0,170,267l-47.53,16.17,13.36,32,43.83-12.93,3.71,7.9a32.94,32.94,0,0,1,4.08,15.09q0,16.53-16.34,16.53-10.4,0-18-13.11t-18-13.12H27.85Q0,315.45,0,342.4V459.16A37.13,37.13,0,0,0,37.13,422V375.45q0-14,.75-16.89,2.22-6.82,12.25-6.82H125q3.33,10.41,17.45,18.32T168.1,378q25.64,0,40.67-14.74t15-39.51a76,76,0,0,0-9.66-37Q202.63,264.44,183,264.44Z"/><path class="cls-1" d="M281.1,290.59a21.43,21.43,0,0,0,6.77-16,22.72,22.72,0,0,0-38.71-16,22,22,0,0,0-6.39,16,22.45,22.45,0,0,0,38.33,16Z"/><path class="cls-1" d="M622.65,268.35v-.8a18.46,18.46,0,0,1,13.93-17.67c10.84-3,18.54-9.83,23.75-21a71.15,71.15,0,0,0,6-25.61V75.63a37.2,37.2,0,0,1,37.21-37.2h0V203.25c0,29.57-16,71.54-58.2,82.71A18.17,18.17,0,0,1,622.65,268.35Z"/><path class="cls-1" d="M284.53,189.83c0,5,0,10.87,0,13.84V189.83Z"/><path class="cls-1" d="M738,253.09a18.79,18.79,0,0,0-23.89,11.65C697.83,311.86,649,314.29,646,314.4H548.49q-13.12,0-28.55,12.78Q483.5,357.62,440.27,355c-5.5-.5-8.25-2-8.25-4.5,0-1,1.24-1.64,3.76-1.88a150.55,150.55,0,0,0,59-19.55q33.46-19.92,33.48-48.48,0-15.79-13.92-28.55t-30.06-12.78q-36.08,0-63.53,30.43-22.55,25.56-22.54,44.72H303.37a18.9,18.9,0,0,1-13.92-5.64,18.48,18.48,0,0,1-4.81-8.09,32.6,32.6,0,0,1-38,1.21v12.89a36.13,36.13,0,0,0,10.71,26.3A35.2,35.2,0,0,0,283.45,352h19.92v0h94.81v37.57q46.59,0,62.76-2.25,41.35-6.39,78.56-30.45c5-3.26,9.76-4.87,14.26-4.87h92.79c3.18-.05,78-2.14,103.09-75A18.79,18.79,0,0,0,738,253.09ZM453.05,290.72q14.29-13.89,25.19-13.89c7.52,0,11.28,1.64,11.28,4.89q0,10.88-28.95,22.18c-15.8,6-24.19,9.52-25.19,10.5Q441,302.37,453.05,290.72Z"/></svg>